<mxfile host="app.diagrams.net" modified="2023-06-14T00:47:36.835Z" agent="Mozilla/5.0 (Macintosh; Intel Mac OS X 10_15_7) AppleWebKit/537.36 (KHTML, like Gecko) Chrome/114.0.0.0 Safari/537.36" version="21.3.7" etag="x49fx1E4qJrO82QWKugr" type="github">
  <diagram name="Page-1" id="voDD6e5SaIM_I0BKjdb3">
    <mxGraphModel>
      <root>
        <mxCell id="0" />
        <mxCell id="1" parent="0" />
      </root>
    </mxGraphModel>
  </diagram>
</mxfile>
